<?xml version="1.0" encoding="UTF-8"?>
<svg version="1.1" xmlns="http://www.w3.org/2000/svg" width="786" height="225">
<path d="M0 0 C3.93571661 3.07353123 7.66038605 6.35619694 11.32177734 9.74951172 C11.82370605 10.21292969 12.32563477 10.67634766 12.84277344 11.15380859 C31.33041273 28.42427936 42.33441333 51.35677691 43.32177734 76.74951172 C43.52094994 90.76544377 43.21399909 104.4840643 38.32177734 117.74951172 C37.89896484 118.92255859 37.47615234 120.09560547 37.04052734 121.30419922 C27.38757784 145.81196545 6.73082676 164.58147256 -17.15478516 174.99169922 C-42.36123148 185.2453572 -70.56685992 186.13107128 -95.86572266 176.06201172 C-108.60683642 170.23083837 -119.31572316 162.0785544 -129.67822266 152.74951172 C-130.42845703 152.09466797 -131.17869141 151.43982422 -131.95166016 150.76513672 C-138.16852388 145.01515209 -142.38072752 137.97169104 -146.67822266 130.74951172 C-147.10103516 130.03923828 -147.52384766 129.32896484 -147.95947266 128.59716797 C-160.16748692 106.10094813 -161.78924585 77.87180183 -155.06005859 53.51171875 C-153.57402166 48.7864674 -151.72611316 44.25634324 -149.67822266 39.74951172 C-149.18708984 38.65509766 -148.69595703 37.56068359 -148.18994141 36.43310547 C-143.76357254 27.48151582 -137.63235644 20.07831748 -131.17651367 12.51953125 C-130.21854157 11.38782232 -129.27471542 10.24388549 -128.34985352 9.08496094 C-124.18072028 3.87088916 -119.15991789 0.46896566 -113.67822266 -3.25048828 C-112.95248047 -3.76611328 -112.22673828 -4.28173828 -111.47900391 -4.81298828 C-105.77364524 -8.58241735 -99.58689295 -11.03457326 -93.24072266 -13.50048828 C-92.3707666 -13.84208984 -91.50081055 -14.18369141 -90.60449219 -14.53564453 C-61.270064 -25.55594983 -24.91836879 -18.56733852 0 0 Z M-111.67822266 14.74951172 C-112.38205078 15.30123047 -113.08587891 15.85294922 -113.81103516 16.42138672 C-130.80063686 30.41282342 -139.89742573 49.62317077 -142.36572266 71.19873047 C-144.57190357 96.26646105 -137.66053478 120.13485594 -121.67822266 139.74951172 C-109.00796348 154.25900207 -90.58468155 164.43337204 -71.67822266 167.74951172 C-44.90751402 169.43693684 -22.25694935 164.71458991 -1.67822266 146.74951172 C10.33045036 135.3326811 17.17003741 120.86422934 23.32177734 105.74951172 C23.71107422 104.84072266 24.10037109 103.93193359 24.50146484 102.99560547 C25.81331708 97.80441875 25.89219879 92.58534366 26.07177734 87.24951172 C26.11125488 86.08129883 26.15073242 84.91308594 26.19140625 83.70947266 C26.82182283 59.49743062 18.80682314 38.55998833 2.32177734 20.74951172 C-12.13298691 5.90208834 -32.04984792 -5.31132078 -53.10205078 -5.63134766 C-75.76025293 -5.58818918 -93.9152039 0.4226179 -111.67822266 14.74951172 Z " fill="#5C698E" transform="translate(170.67822265625,37.25048828125)"/>
<path d="M0 0 C5.81136149 4.87675077 10.31675616 12.55480773 11.46704102 20.03857422 C11.63426442 23.31191563 11.64231646 26.53596257 11.5625 29.8125 C11.54590332 30.96161865 11.52930664 32.1107373 11.51220703 33.29467773 C11.18979027 45.06288936 9.21146846 55.99727655 1 65 C-10.47718779 75.01076686 -22.71185237 76.1825778 -37.375 76.125 C-38.84066406 76.13080078 -38.84066406 76.13080078 -40.3359375 76.13671875 C-41.3053125 76.13542969 -42.2746875 76.13414062 -43.2734375 76.1328125 C-44.13372559 76.13168457 -44.99401367 76.13055664 -45.88037109 76.12939453 C-50.26598383 75.94749011 -54.63240009 75.43675999 -59 75 C-59.33 47.94 -59.66 20.88 -60 -7 C-42.7805878 -15.6097061 -15.46265062 -10.07378337 0 0 Z M-44 6 C-43.34 6.66 -42.68 7.32 -42 8 C-41.67 8.66 -41.34 9.32 -41 10 C-41.66 10 -42.32 10 -43 10 C-43 27.16 -43 44.32 -43 62 C-25.58501444 62.48152672 -25.58501444 62.48152672 -12.01171875 55.359375 C-11.57472656 54.82828125 -11.13773438 54.2971875 -10.6875 53.75 C-10.01267578 52.96882813 -10.01267578 52.96882813 -9.32421875 52.171875 C-5.49443227 45.89057329 -4.468606 39.90398541 -4.5625 32.625 C-4.57152344 31.79009033 -4.58054687 30.95518066 -4.58984375 30.0949707 C-4.79438178 22.80759306 -5.49859187 16.40982201 -10.94140625 11.109375 C-15.7450754 7.32305751 -19.38536463 5.86976383 -25.54296875 5.90234375 C-27.15268555 5.90717773 -27.15268555 5.90717773 -28.79492188 5.91210938 C-29.91447266 5.92048828 -31.03402344 5.92886719 -32.1875 5.9375 C-33.88422852 5.94426758 -33.88422852 5.94426758 -35.61523438 5.95117188 C-38.41020927 5.96296502 -41.2050782 5.9794235 -44 6 Z " fill="#546AAC" transform="translate(593,85)"/>
<path d="M0 0 C0.33 -0.33 0.66 -0.66 1 -1 C3.35313555 -1.07271741 5.70833668 -1.08370868 8.0625 -1.0625 C9.35285156 -1.05347656 10.64320313 -1.04445313 11.97265625 -1.03515625 C12.97167969 -1.02355469 13.97070312 -1.01195313 15 -1 C16.13777734 5.39458228 16.17845123 11.69568839 16.203125 18.1796875 C16.20882507 19.34702423 16.21452515 20.51436096 16.22039795 21.71707153 C16.22981778 24.17969871 16.23636989 26.64233831 16.24023438 29.10498047 C16.24994915 32.85536803 16.28100589 36.60520936 16.3125 40.35546875 C16.31903011 42.7552051 16.32428055 45.15494534 16.328125 47.5546875 C16.3404718 48.66746063 16.3528186 49.78023376 16.36553955 50.92672729 C16.33891919 60.31004589 14.75116445 69.03163991 8 76 C-0.98818269 82.64519574 -12.33247368 81.84855323 -23 81 C-27.49846975 80.02229205 -31.55975778 79.04757327 -34.296875 75.15625 C-35.1740259 72.46632058 -34.84404891 70.96640698 -34.125 68.25 C-33.92132813 67.45078125 -33.71765625 66.6515625 -33.5078125 65.828125 C-33.34023438 65.22484375 -33.17265625 64.6215625 -33 64 C-31.845 64.165 -30.69 64.33 -29.5 64.5 C-24.96180457 64.99704045 -20.43702048 65.14529815 -15.875 65.1875 C-15.20662109 65.20039063 -14.53824219 65.21328125 -13.84960938 65.2265625 C-9.16213794 65.2357989 -5.40253005 64.44654559 -1 63 C-0.34 60.36 0.32 57.72 1 55 C0.31035156 55.144375 -0.37929688 55.28875 -1.08984375 55.4375 C-10.04574232 57.20656638 -17.72492337 58.6641341 -26 54 C-32.51292383 49.2746925 -37.43208457 43.70374628 -40 36 C-41.00292299 25.98473489 -41.56888576 15.21935957 -35 7 C-25.37034174 -3.4358622 -12.76490914 -5.47067535 0 0 Z M-22 17 C-24.20463038 21.50947124 -24.62373254 26.05964223 -24 31 C-22.14881803 36.24501558 -19.53571752 38.97618832 -15 42 C-10.99055702 42.75177056 -9.39857779 42.21882702 -5.8125 40.25 C-1.79116856 37.03293485 -0.17400003 35.50486513 0.43359375 30.25 C0.45077222 28.83343689 0.45161464 27.41659695 0.4375 26 C0.45748047 25.2884375 0.47746094 24.576875 0.49804688 23.84375 C0.49474779 20.30712782 0.30599095 18.38638368 -1.91796875 15.578125 C-5.91317056 12.54986697 -8.77696788 11.47580134 -13.96875 11.62109375 C-17.65247799 12.3082507 -19.53937388 14.30502854 -22 17 Z " fill="#474951" transform="translate(400,104)"/>
<path d="M0 0 C3.65813297 0.14305548 5.48244537 1.20555525 7.93359375 3.76171875 C9.11044421 5.06233076 10.27758415 6.37176301 11.4375 7.6875 C19.68492722 16.75783446 28.31451527 25.41423786 37 34.0625 C38.38079944 35.43902471 39.76157783 36.81557054 41.14233398 38.19213867 C44.42569537 41.4639736 47.71197793 44.73284917 51 48 C59.63854051 43.7645474 68.21712307 39.557992 76.375 34.4375 C77.13119629 33.97061768 77.88739258 33.50373535 78.66650391 33.02270508 C82.66608926 30.533606 86.55839746 27.9520903 90.375 25.1875 C95.56482359 21.43122908 101.21337168 18.71434627 107 16 C107.99 16.99 108.98 17.98 110 19 C104.81733093 24.27825108 99.6101098 29.42609123 93.984375 34.23046875 C91.78512187 36.19161377 89.74344869 38.26437182 87.6875 40.375 C83.56787645 44.55865915 79.14285933 48.20431082 74.5703125 51.87890625 C69.65131401 55.93820136 65.46405437 60.43371409 61.375 65.3125 C56.97315188 70.37266023 56.97315188 70.37266023 53 71 C47.5915572 69.68652103 44.36361004 65.73372603 40.625 61.875 C39.99078125 61.235625 39.3565625 60.59625 38.703125 59.9375 C35.60262519 56.78637978 32.60380063 53.58000306 29.71875 50.23046875 C25.44153922 45.29364864 20.92626413 40.59696663 16.34716797 35.94213867 C15.35589791 34.92900478 14.37095855 33.9096423 13.39208984 32.88452148 C11.96047065 31.38627675 10.51035953 29.90843306 9.0546875 28.43359375 C8.20374512 27.55759521 7.35280273 26.68159668 6.47607422 25.77905273 C4.15887825 23.72720001 4.15887825 23.72720001 1.42553711 24.11254883 C-4.98703283 26.45876843 -10.58615354 29.88882633 -16.1875 33.75 C-17.48852053 34.62917896 -18.79062586 35.50675453 -20.09375 36.3828125 C-20.74214844 36.81883789 -21.39054687 37.25486328 -22.05859375 37.70410156 C-25.07643526 39.71852595 -28.11826626 41.68988502 -31.1875 43.625 C-32.72470703 44.60339844 -32.72470703 44.60339844 -34.29296875 45.6015625 C-37 47 -37 47 -41 47 C-40.67 45.68 -40.34 44.36 -40 43 C-39.01 43 -38.02 43 -37 43 C-36.814375 42.34 -36.62875 41.68 -36.4375 41 C-34.36864157 36.68238241 -31.25948069 33.47000394 -28 30 C-27.47277344 29.42507812 -26.94554687 28.85015625 -26.40234375 28.2578125 C-25 27 -25 27 -23 27 C-22.60603027 26.12275269 -22.60603027 26.12275269 -22.20410156 25.2277832 C-20.94021216 22.88938279 -19.57021174 21.27064752 -17.734375 19.35546875 C-16.76951172 18.33936523 -16.76951172 18.33936523 -15.78515625 17.30273438 C-15.11355469 16.60470703 -14.44195312 15.90667969 -13.75 15.1875 C-9.01751682 10.236523 -4.41167615 5.24057804 0 0 Z " fill="#556594" transform="translate(79,88)"/>
<path d="M0 0 C0.99261337 0.00222061 1.98522675 0.00444122 3.00791931 0.00672913 C4.12900589 0.00680466 5.25009247 0.00688019 6.40515137 0.00695801 C8.2348069 0.01469994 8.2348069 0.01469994 10.10142517 0.02259827 C11.96377052 0.02472069 11.96377052 0.02472069 13.86373901 0.02688599 C17.16982383 0.03154861 20.47584039 0.04053955 23.78190613 0.05158997 C27.15338042 0.06180625 30.52486175 0.06638407 33.89634705 0.07142639 C40.51550667 0.08248056 47.13463385 0.09923715 53.75376892 0.12025452 C54.726268 5.41497171 54.5499762 8.54680359 53.75376892 14.12025452 C39.89376892 14.12025452 26.03376892 14.12025452 11.75376892 14.12025452 C12.08376892 21.38025452 12.41376892 28.64025452 12.75376892 36.12025452 C31.06876892 36.61525452 31.06876892 36.61525452 49.75376892 37.12025452 C49.75376892 41.41025452 49.75376892 45.70025452 49.75376892 50.12025452 C48.76457458 50.14531067 47.77538025 50.17036682 46.75621033 50.19618225 C43.09217488 50.29023239 39.42833007 50.39045881 35.76451111 50.49256897 C34.17764236 50.53592693 32.59072669 50.57760139 31.00376892 50.61756897 C28.72497913 50.67525084 26.4464257 50.7389509 24.16783142 50.80384827 C23.1005632 50.82891701 23.1005632 50.82891701 22.01173401 50.85449219 C18.25716075 50.91747389 18.25716075 50.91747389 14.75376892 52.12025452 C14.42376892 62.35025452 14.09376892 72.58025452 13.75376892 83.12025452 C8.47376892 83.12025452 3.19376892 83.12025452 -2.24623108 83.12025452 C-3.4415286 79.53436195 -3.38602467 76.27507147 -3.37562561 72.54359436 C-3.37737793 71.7742305 -3.37913025 71.00486664 -3.38093567 70.21218872 C-3.38533808 67.66850023 -3.38242243 65.12488121 -3.37904358 62.58119202 C-3.37971694 60.81667569 -3.38068724 59.05215945 -3.38194275 57.28764343 C-3.38341742 53.5905621 -3.38127203 49.89350492 -3.37660217 46.19642639 C-3.37089667 41.44690218 -3.37419053 36.69743437 -3.38017464 31.94791222 C-3.38377934 28.30550202 -3.38264223 24.66310532 -3.38004684 21.02069473 C-3.37937776 19.26871865 -3.38020537 17.51674136 -3.3825264 15.76476669 C-3.38505234 13.32251972 -3.38121356 10.88036563 -3.37562561 8.43812561 C-3.37764984 7.70772568 -3.37967407 6.97732574 -3.38175964 6.22479248 C-3.35600067 0.17966728 -3.35600067 0.17966728 0 0 Z " fill="#474A53" transform="translate(251.24623107910156,76.87974548339844)"/>
<path d="M0 0 C1.28003906 -0.01675781 2.56007813 -0.03351563 3.87890625 -0.05078125 C7.62389549 0.3315283 9.32795987 1.32873363 12.4375 3.3125 C13.4275 2.9825 14.4175 2.6525 15.4375 2.3125 C17.83240986 2.24279948 20.22917691 2.22801997 22.625 2.25 C23.89730469 2.25902344 25.16960938 2.26804687 26.48046875 2.27734375 C27.94419922 2.29474609 27.94419922 2.29474609 29.4375 2.3125 C30.52004518 8.45408949 30.58251927 14.45308299 30.5703125 20.6796875 C30.57126923 21.7550174 30.57222595 22.83034729 30.57321167 23.93826294 C30.57388958 26.19907693 30.57206256 28.45989291 30.56787109 30.72070312 C30.56248581 34.19665832 30.56784536 37.67248614 30.57421875 41.1484375 C30.57355852 43.34635445 30.57227849 45.54427133 30.5703125 47.7421875 C30.57233673 48.78688202 30.57436096 49.83157654 30.57644653 50.90792847 C30.57171829 52.34544968 30.57171829 52.34544968 30.56689453 53.81201172 C30.56609894 54.65915741 30.56530334 55.5063031 30.56448364 56.37911987 C30.4375 58.3125 30.4375 58.3125 29.4375 59.3125 C27.08436445 59.38521741 24.72916332 59.39620868 22.375 59.375 C21.08464844 59.36597656 19.79429687 59.35695312 18.46484375 59.34765625 C17.46582031 59.33605469 16.46679688 59.32445312 15.4375 59.3125 C15.4375 58.3225 15.4375 57.3325 15.4375 56.3125 C14.83421875 56.58964844 14.2309375 56.86679688 13.609375 57.15234375 C12.41054688 57.69568359 12.41054688 57.69568359 11.1875 58.25 C10.39859375 58.60964844 9.6096875 58.96929687 8.796875 59.33984375 C2.67610526 61.86314121 -3.77245149 62.4826204 -10.15625 60.51171875 C-17.87910813 57.04358338 -23.96270202 51.45965583 -27.26171875 43.5859375 C-28.8258454 39.11797344 -29.00924211 34.94910791 -28.9375 30.25 C-28.94910156 29.48623047 -28.96070313 28.72246094 -28.97265625 27.93554688 C-28.92478689 18.60900038 -24.97976857 12.84360038 -18.5625 6.3125 C-12.93542789 1.09716487 -7.57087097 0.02291888 0 0 Z M-9.5625 17.3125 C-13.84918542 23.02808055 -14.32349639 29.35928642 -13.5625 36.3125 C-12.01103943 41.0955002 -10.01513973 44.7637476 -5.5625 47.3125 C-2.42396289 47.74973546 -2.42396289 47.74973546 0.9375 47.625 C2.62359375 47.61919922 2.62359375 47.61919922 4.34375 47.61328125 C8.21782052 47.25743594 8.21782052 47.25743594 11.4375 45.3125 C15.456772 39.81618104 16.11491677 35.39684649 16.0625 28.6875 C16.09472656 27.85476562 16.12695312 27.02203125 16.16015625 26.1640625 C16.19481636 21.59780407 16.19481636 21.59780407 14.16308594 17.64941406 C9.63640121 13.7449733 5.53813505 12.95634352 -0.2109375 13.03125 C-4.17265212 13.50507633 -6.34944804 14.93484155 -9.5625 17.3125 Z " fill="#556BAA" transform="translate(637.5625,100.6875)"/>
<path d="M0 0 C4.29 0 8.58 0 13 0 C13.66 9.24 14.32 18.48 15 28 C17.31 26.68 19.62 25.36 22 24 C28.87612071 22.94913679 37.03056636 23.0160235 43 27 C50.84749825 34.48036383 50.84749825 34.48036383 51.12025452 38.98684692 C51.11803391 39.79959076 51.11581329 40.61233459 51.11352539 41.44970703 C51.11344986 42.37051056 51.11337433 43.29131409 51.11329651 44.24002075 C51.10813522 45.23589203 51.10297394 46.23176331 51.09765625 47.2578125 C51.0962413 48.27600067 51.09482635 49.29418884 51.09336853 50.3432312 C51.087759 53.60385035 51.07520488 56.86440151 51.0625 60.125 C51.05748623 62.33203026 51.05292311 64.53906159 51.04882812 66.74609375 C51.03778647 72.16408881 51.02051543 77.58203286 51 83 C46.38 83 41.76 83 37 83 C36.98541748 81.97116699 36.97083496 80.94233398 36.95581055 79.88232422 C36.89761343 76.04653053 36.82038297 72.21131078 36.73754883 68.37597656 C36.70439982 66.71949616 36.67633691 65.06290554 36.65356445 63.40625 C36.61983268 61.01775366 36.56751041 58.63025829 36.51171875 56.2421875 C36.50213387 55.14026566 36.50213387 55.14026566 36.49235535 54.01608276 C36.33481974 48.44282487 34.74851201 44.76080844 31.8125 40.125 C28.75033774 38.22434756 25.45337815 38.61554189 22 39 C18.29203888 39.95254843 18.29203888 39.95254843 15.90405273 42.74121094 C14.85230874 45.36900879 14.60332353 47.56715121 14.41015625 50.390625 C14.33684082 51.45087891 14.26352539 52.51113281 14.18798828 53.60351562 C13.87175066 59.31714915 13.63481445 65.03111559 13.4375 70.75 C13.39431641 71.9359375 13.35113281 73.121875 13.30664062 74.34375 C13.20193117 77.22907717 13.10060626 80.11452684 13 83 C8.38 83 3.76 83 -1 83 C-1.02312328 72.32580302 -1.04091501 61.65161194 -1.05181217 50.97739506 C-1.05704103 46.02146078 -1.06413874 41.06554358 -1.07543945 36.10961914 C-1.08626822 31.33101164 -1.09227681 26.55242062 -1.09487724 21.7738018 C-1.09673151 19.94646381 -1.10035216 18.11912676 -1.10573006 16.29179573 C-1.11294036 13.74146671 -1.11399095 11.19120663 -1.11352539 8.64086914 C-1.11712067 7.87770386 -1.12071594 7.11453857 -1.12442017 6.32824707 C-1.11405216 1.11405216 -1.11405216 1.11405216 0 0 Z " fill="#44464F" transform="translate(427,77)"/>
<path d="M0 0 C1.5949042 0.81096824 3.18301937 1.63630989 4.75 2.5 C4.75 1.51 4.75 0.52 4.75 -0.5 C9.04 -0.5 13.33 -0.5 17.75 -0.5 C17.75 18.31 17.75 37.12 17.75 56.5 C3.75 56.5 3.75 56.5 0.75 55.5 C-1.19099351 56.04339604 -1.19099351 56.04339604 -3.25 56.9375 C-10.61901489 59.50530908 -17.38652623 59.70224482 -24.5625 56.4375 C-32.93924354 51.69820136 -36.96237066 44.65073543 -39.83984375 35.65625 C-41.32406301 27.8534973 -41.38315551 19.38859252 -37.25 12.5 C-36.85941406 11.84644531 -36.46882812 11.19289063 -36.06640625 10.51953125 C-27.94868047 -1.73754479 -13.36737347 -6.12959872 0 0 Z M-23.25 17.5 C-25.96837114 22.12123094 -25.88144718 27.30211161 -25.25 32.5 C-23.72477719 37.61814458 -22.03492815 41.77175149 -17.25 44.5 C-10.97410124 45.39156222 -4.48348735 45.39156752 0.75 41.5 C5.74786243 35.29827289 4.88863096 26.2149806 4.18945312 18.66650391 C3.54711419 15.49977297 2.36274272 14.10144355 -0.25 12.25 C-8.89305542 8.41014963 -17.11707636 10.05287844 -23.25 17.5 Z " fill="#546BAA" transform="translate(755.25,103.5)"/>
<path d="M0 0 C4.29 0 8.58 0 13 0 C13.495 6.93 13.495 6.93 14 14 C15.60681641 14.09087891 15.60681641 14.09087891 17.24609375 14.18359375 C18.64324391 14.26798537 20.04037857 14.35263406 21.4375 14.4375 C22.14455078 14.47681641 22.85160156 14.51613281 23.58007812 14.55664062 C28.88671875 14.88671875 28.88671875 14.88671875 30 16 C30.09823937 17.66429051 30.12973631 19.33281931 30.125 21 C30.12886719 22.36125 30.12886719 22.36125 30.1328125 23.75 C30 26 30 26 29 27 C24.38 27 19.76 27 15 27 C15.33 37.56 15.66 48.12 16 59 C19.3 59 22.6 59 26 59 C26.99 59.33 27.98 59.66 29 60 C29 63.96 29 67.92 29 72 C21.97150295 74.81139882 14.77564904 75.21360148 7.5 72.875 C3.89314611 70.16985959 0.53496673 67.49994716 -0.43716431 62.95709229 C-0.57675795 60.58351047 -0.5628806 58.25930775 -0.48828125 55.8828125 C-0.47766914 54.5970784 -0.47766914 54.5970784 -0.46684265 53.28536987 C-0.43899213 50.56433529 -0.37627456 47.84540593 -0.3125 45.125 C-0.2874049 43.27346735 -0.26459385 41.42190224 -0.24414062 39.5703125 C-0.18919651 35.04607154 -0.10299162 30.52339191 0 26 C-0.63808594 26.01160156 -1.27617187 26.02320312 -1.93359375 26.03515625 C-3.17302734 26.04869141 -3.17302734 26.04869141 -4.4375 26.0625 C-5.67306641 26.07990234 -5.67306641 26.07990234 -6.93359375 26.09765625 C-9 26 -9 26 -10 25 C-10.07205511 23.31391034 -10.08386068 21.62499341 -10.0625 19.9375 C-10.05347656 19.01839844 -10.04445313 18.09929687 -10.03515625 17.15234375 C-10.02355469 16.44207031 -10.01195312 15.73179688 -10 15 C-8.88625 14.896875 -7.7725 14.79375 -6.625 14.6875 C-5.42875 14.460625 -4.2325 14.23375 -3 14 C-0.81005752 10.71508627 -0.64722661 9.16904361 -0.375 5.3125 C-0.25125 3.559375 -0.1275 1.80625 0 0 Z " fill="#4B4D55" transform="translate(493,88)"/>
<path d="M0 0 C3.35286458 0.03255208 6.70572917 0.06510417 10.05859375 0.09765625 C10.05859375 5.04765625 10.05859375 9.99765625 10.05859375 15.09765625 C15.00859375 15.09765625 19.95859375 15.09765625 25.05859375 15.09765625 C25.05859375 18.72765625 25.05859375 22.35765625 25.05859375 26.09765625 C20.10859375 26.09765625 15.15859375 26.09765625 10.05859375 26.09765625 C10.21199219 27.15984375 10.36539063 28.22203125 10.5234375 29.31640625 C11.24121518 35.05862767 11.41025645 40.8186404 11.62109375 46.59765625 C11.66427734 47.70625 11.70746094 48.81484375 11.75195312 49.95703125 C11.85721589 52.67047131 11.95935221 55.38399042 12.05859375 58.09765625 C13.19748047 58.18853516 13.19748047 58.18853516 14.359375 58.28125 C15.35324219 58.36503906 16.34710937 58.44882813 17.37109375 58.53515625 C18.35722656 58.61636719 19.34335937 58.69757813 20.359375 58.78125 C23.05859375 59.09765625 23.05859375 59.09765625 26.05859375 60.09765625 C26.05859375 64.05765625 26.05859375 68.01765625 26.05859375 72.09765625 C19.62764873 74.87860545 11.83125384 75.43098132 5.18359375 72.97265625 C1.6561561 70.85619366 -0.90820331 68.66768884 -2.94140625 65.09765625 C-3.58933836 62.1106642 -3.5278782 59.24403084 -3.4296875 56.19921875 C-3.41907539 54.94677872 -3.41907539 54.94677872 -3.4082489 53.66903687 C-3.3804055 51.01930652 -3.31769031 48.37174066 -3.25390625 45.72265625 C-3.22881018 43.9193015 -3.2059993 42.1159134 -3.18554688 40.3125 C-3.13061236 35.90672642 -3.04441337 31.50255746 -2.94140625 27.09765625 C-6.24140625 27.09765625 -9.54140625 27.09765625 -12.94140625 27.09765625 C-12.94140625 23.13765625 -12.94140625 19.17765625 -12.94140625 15.09765625 C-9.64140625 15.09765625 -6.34140625 15.09765625 -2.94140625 15.09765625 C-3.27140625 13.77765625 -3.60140625 12.45765625 -3.94140625 11.09765625 C-4.03161929 9.37034184 -4.07151603 7.6398173 -4.06640625 5.91015625 C-4.06898438 5.02972656 -4.0715625 4.14929688 -4.07421875 3.2421875 C-3.86632786 -0.11463888 -3.42503982 0.11371314 0 0 Z " fill="#5169A9" transform="translate(685.94140625,87.90234375)"/>
<path d="M0 0 C4.62 0 9.24 0 14 0 C14 27.39 14 54.78 14 83 C9.38 83 4.76 83 0 83 C-1.72880189 81.27119811 -1.12599234 79.05097384 -1.13552856 76.74632263 C-1.13350433 75.99407913 -1.1314801 75.24183563 -1.12939453 74.46679688 C-1.13114685 73.67821793 -1.13289917 72.88963898 -1.13470459 72.0771637 C-1.13912358 69.4576704 -1.13618496 66.83824404 -1.1328125 64.21875 C-1.13348553 62.4065347 -1.13445554 60.59431948 -1.13571167 58.78210449 C-1.13718871 54.97891381 -1.1350339 51.17574656 -1.13037109 47.37255859 C-1.1246738 42.48621505 -1.12795278 37.59992643 -1.13394356 32.7135849 C-1.13754901 28.96994611 -1.13641066 25.22632045 -1.13381577 21.48268127 C-1.13314645 19.68046563 -1.13397507 17.87824882 -1.13629532 16.07603455 C-1.13882159 13.56172509 -1.13498162 11.04750583 -1.12939453 8.53320312 C-1.13141876 7.78095963 -1.13344299 7.02871613 -1.13552856 6.25367737 C-1.1142626 1.1142626 -1.1142626 1.1142626 0 0 Z " fill="#484B53" transform="translate(313,77)"/>
<path d="M0 0 C4.95 0 9.9 0 15 0 C15 18.81 15 37.62 15 57 C10.05 57 5.1 57 0 57 C0 38.19 0 19.38 0 0 Z " fill="#4A4B55" transform="translate(338,103)"/>
<path d="M0 0 C3.32199976 2.12948703 3.89590149 3.6632107 5.0625 7.4375 C5 11 5 11 3.125 13.9375 C-0.5345027 16.35277178 -2.64156762 16.52707758 -6.9140625 16.46875 C-9.4997262 15.88770198 -10.4039641 15.09236414 -12 13 C-13.02737671 9.03726124 -13.40572469 6.88873027 -11.6875 3.125 C-8.58098554 -0.7869071 -4.7055495 -0.65225439 0 0 Z " fill="#4B4D53" transform="translate(350,77)"/>
<path d="M0 0 C0.60440918 0.35102783 1.20881836 0.70205566 1.83154297 1.0637207 C-2.34489167 6.10114341 -6.72517357 10.6422082 -11.54345703 15.0637207 C-12.20031494 15.6716748 -12.85717285 16.27962891 -13.53393555 16.90600586 C-18.01051068 21.03661099 -22.52656176 25.11885124 -27.16845703 29.0637207 C-27.82845703 28.7337207 -28.48845703 28.4037207 -29.16845703 28.0637207 C-28.67345703 26.5787207 -28.67345703 26.5787207 -28.16845703 25.0637207 C-27.40533203 24.7749707 -26.64220703 24.4862207 -25.85595703 24.1887207 C-22.53585154 22.7989091 -21.22538028 20.95864971 -19.16845703 18.0637207 C-19.49845703 17.4037207 -19.82845703 16.7437207 -20.16845703 16.0637207 C-21.15845703 16.0637207 -22.14845703 16.0637207 -23.16845703 16.0637207 C-23.16845703 15.4037207 -23.16845703 14.7437207 -23.16845703 14.0637207 C-23.82845703 13.7337207 -24.48845703 13.4037207 -25.16845703 13.0637207 C-22.46353733 11.28763131 -19.75392903 9.51882292 -17.04345703 7.7512207 C-16.28291016 7.25170898 -15.52236328 6.75219727 -14.73876953 6.23754883 C-3.09925294 -1.33817102 -3.09925294 -1.33817102 0 0 Z " fill="#585A61" transform="translate(187.16845703125,104.936279296875)"/>
<path d="M0 0 C0.33 0.66 0.66 1.32 1 2 C1.99 2 2.98 2 4 2 C4.433125 2.9590625 4.433125 2.9590625 4.875 3.9375 C5.82823451 6.15206079 5.82823451 6.15206079 8 7 C2.96553315 10.62053148 -2.11177647 14.15581747 -7.375 17.4375 C-8.16648437 17.93121094 -8.95796875 18.42492187 -9.7734375 18.93359375 C-12 20 -12 20 -16 20 C-15.67 18.68 -15.34 17.36 -15 16 C-14.01 16 -13.02 16 -12 16 C-11.814375 15.34 -11.62875 14.68 -11.4375 14 C-8.80764458 8.51160608 -4.30695343 4.24109787 0 0 Z " fill="#57658E" transform="translate(54,115)"/>
<path d="M0 0 C0.33 0 0.66 0 1 0 C1.8028148 4.93408221 2.12845356 9.63379199 2.1328125 14.6484375 C2.13424759 15.6954332 2.13424759 15.6954332 2.13571167 16.76358032 C2.13638703 18.22406099 2.13457809 19.68454477 2.13037109 21.14501953 C2.12496456 23.38971557 2.13036262 25.63421594 2.13671875 27.87890625 C2.13605881 29.30208378 2.13477939 30.72526118 2.1328125 32.1484375 C2.13168457 33.43927246 2.13055664 34.73010742 2.12939453 36.06005859 C2 39 2 39 1 40 C-1.35313555 40.07271741 -3.70833668 40.08370868 -6.0625 40.0625 C-7.35285156 40.05347656 -8.64320313 40.04445312 -9.97265625 40.03515625 C-10.97167969 40.02355469 -11.97070312 40.01195312 -13 40 C-13 39.01 -13 38.02 -13 37 C-13.60328125 37.30035156 -14.2065625 37.60070312 -14.828125 37.91015625 C-15.62734375 38.29042969 -16.4265625 38.67070312 -17.25 39.0625 C-18.03890625 39.44535156 -18.8278125 39.82820313 -19.640625 40.22265625 C-22.25993522 41.08564091 -23.44855176 40.93045933 -26 40 C-23.69 39.01 -21.38 38.02 -19 37 C-19 36.34 -19 35.68 -19 35 C-16 35 -13 35 -10 35 C-10 35.99 -10 36.98 -10 38 C-7.36 38 -4.72 38 -2 38 C-0.99356232 33.77009642 -0.7874973 29.62025877 -0.68359375 25.29296875 C-0.66281265 24.56757401 -0.64203156 23.84217926 -0.62062073 23.09480286 C-0.55557785 20.79245887 -0.49645227 18.49000718 -0.4375 16.1875 C-0.39427165 14.62043186 -0.35065602 13.05337435 -0.30664062 11.48632812 C-0.19994332 7.65766064 -0.09855031 3.8288855 0 0 Z " fill="#58689C" transform="translate(666,120)"/>
<path d="M0 0 C3.35286458 0.03255208 6.70572917 0.06510417 10.05859375 0.09765625 C10.05859375 5.04765625 10.05859375 9.99765625 10.05859375 15.09765625 C15.00859375 15.09765625 19.95859375 15.09765625 25.05859375 15.09765625 C25.05859375 18.72765625 25.05859375 22.35765625 25.05859375 26.09765625 C20.10859375 26.09765625 15.15859375 26.09765625 10.05859375 26.09765625 C10.05859375 25.76765625 10.05859375 25.43765625 10.05859375 25.09765625 C13.68859375 24.76765625 17.31859375 24.43765625 21.05859375 24.09765625 C22.04859375 20.63265625 22.04859375 20.63265625 23.05859375 17.09765625 C21.66833984 17.11505859 21.66833984 17.11505859 20.25 17.1328125 C19.05246094 17.14183594 17.85492187 17.15085937 16.62109375 17.16015625 C15.42613281 17.17175781 14.23117187 17.18335937 13 17.1953125 C10.05859375 17.09765625 10.05859375 17.09765625 9.05859375 16.09765625 C8.98545808 13.56716223 8.96611848 11.06460788 8.99609375 8.53515625 C9.00060547 7.82423828 9.00511719 7.11332031 9.00976562 6.38085938 C9.02158511 4.61975612 9.03952112 2.85869589 9.05859375 1.09765625 C5.75859375 1.09765625 2.45859375 1.09765625 -0.94140625 1.09765625 C-0.94140625 4.06765625 -0.94140625 7.03765625 -0.94140625 10.09765625 C-1.93140625 10.59265625 -1.93140625 10.59265625 -2.94140625 11.09765625 C-3.13547103 9.45258407 -3.3214856 7.80656031 -3.50390625 6.16015625 C-3.60832031 5.24363281 -3.71273437 4.32710938 -3.8203125 3.3828125 C-3.86027344 2.62871094 -3.90023437 1.87460938 -3.94140625 1.09765625 C-2.94140625 0.09765625 -2.94140625 0.09765625 0 0 Z " fill="#516195" transform="translate(685.94140625,87.90234375)"/>
<path d="M0 0 C4.29 0 8.58 0 13 0 C13 18.81 13 37.62 13 57 C8.38 57 3.76 57 -1 57 C-1 56.01 -1 55.02 -1 54 C-0.34 54.33 0.32 54.66 1 55 C4.3 55.33 7.6 55.66 11 56 C11 38.18 11 20.36 11 2 C7.37 2 3.74 2 0 2 C0 1.34 0 0.68 0 0 Z " fill="#586691" transform="translate(760,103)"/>
<path d="M0 0 C0.66 0.33 1.32 0.66 2 1 C0.68 2.32 -0.64 3.64 -2 5 C-1.13375 4.2265625 -1.13375 4.2265625 -0.25 3.4375 C2 2 2 2 4.0625 2.25 C4.701875 2.4975 5.34125 2.745 6 3 C6.99 3.33 7.98 3.66 9 4 C6.5706914 6.48730862 4.13022506 8.96337167 1.6875 11.4375 C0.65206055 12.49807617 0.65206055 12.49807617 -0.40429688 13.58007812 C-1.07138672 14.25361328 -1.73847656 14.92714844 -2.42578125 15.62109375 C-3.03848877 16.2442749 -3.65119629 16.86745605 -4.2824707 17.50952148 C-6 19 -6 19 -9 20 C-9 18.68 -9 17.36 -9 16 C-8.2575 15.773125 -7.515 15.54625 -6.75 15.3125 C-3.48860409 13.75592468 -2.07105025 11.91481146 0 9 C-0.33 8.34 -0.66 7.68 -1 7 C-1.99 7 -2.98 7 -4 7 C-4 6.34 -4 5.68 -4 5 C-4.66 4.67 -5.32 4.34 -6 4 C-4.02 2.68 -2.04 1.36 0 0 Z " fill="#4D515C" transform="translate(168,114)"/>
<path d="M0 0 C0.928125 0.20625 1.85625 0.4125 2.8125 0.625 C0.55908443 5.13183114 -2.71220266 9.19555287 -7.1875 11.625 C-9.9140625 11.2890625 -9.9140625 11.2890625 -12.1875 10.625 C-11.25731474 9.16199018 -10.31805973 7.70474421 -9.375 6.25 C-8.85292969 5.43789062 -8.33085937 4.62578125 -7.79296875 3.7890625 C-5.37560062 0.53061495 -4.09643775 -0.48193385 0 0 Z " fill="#556082" transform="translate(141.1875,147.375)"/>
<path d="M0 0 C0.33 0 0.66 0 1 0 C0.97679687 1.258125 0.95359375 2.51625 0.9296875 3.8125 C0.75022186 17.87570402 1.57310398 31.29241591 5 45 C1.84823674 43.42411837 1.32171428 41.21808695 0 38 C-0.3842361 35.74607894 -0.6184051 33.52558907 -0.7890625 31.24609375 C-0.95392782 28.97592445 -0.95392782 28.97592445 -1.51855469 26.70239258 C-2.02309415 23.87037059 -2.03976459 21.38640231 -1.9140625 18.515625 C-1.87023437 17.49855469 -1.82640625 16.48148438 -1.78125 15.43359375 C-1.7296875 14.38300781 -1.678125 13.33242187 -1.625 12.25 C-1.58117187 11.18394531 -1.53734375 10.11789063 -1.4921875 9.01953125 C-1.13039261 1.13039261 -1.13039261 1.13039261 0 0 Z " fill="#535A79" transform="translate(28,103)"/>
<path d="M0 0 C2.31 0 4.62 0 7 0 C6.360625 0.185625 5.72125 0.37125 5.0625 0.5625 C2.67799923 1.87393226 2.67799923 1.87393226 2.39086914 4.91821289 C1.82156592 9.84495714 1.76894628 14.79186688 1.68359375 19.74609375 C1.66281265 20.75720718 1.64203156 21.76832062 1.62062073 22.81007385 C1.55557951 26.01915113 1.49645273 29.22830568 1.4375 32.4375 C1.39427152 34.62175257 1.35065589 36.80599752 1.30664062 38.99023438 C1.1999451 44.3267428 1.09809691 49.66332696 1 55 C0.67 55 0.34 55 0 55 C0 36.85 0 18.7 0 0 Z " fill="#43464A" transform="translate(338,103)"/>
<path d="M0 0 C2 2 2 2 2 4 C1.34 4 0.68 4 0 4 C0 5.65 0 7.3 0 9 C2.0745356 9.1490712 2.0745356 9.1490712 4 8 C2.93870191 10.79796769 2.32460328 11.82915617 -0.375 13.25 C-5.55752162 16.70501442 -7.26894804 23.22982681 -9 29 C-9.66 28.67 -10.32 28.34 -11 28 C-9.32236975 22.61577307 -7.1522998 17.49093173 -4.9375 12.3125 C-4.21644166 10.62152248 -3.49634766 8.93013334 -2.77734375 7.23828125 C-2.46015381 6.49618408 -2.14296387 5.75408691 -1.81616211 4.98950195 C-1.14440832 3.35201417 -0.55969808 1.67909424 0 0 Z " fill="#5B6688" transform="translate(195,137)"/>
<path d="M0 0 C-0.66596247 2.6638499 -1.35953558 4.49504946 -3.55078125 6.22265625 C-6.97739531 8.26981968 -8.95799164 9 -13 9 C-12.67 7.68 -12.34 6.36 -12 5 C-11.01 5 -10.02 5 -9 5 C-8.566875 3.7934375 -8.566875 3.7934375 -8.125 2.5625 C-6.19149032 -1.84160538 -4.20681292 -0.99635043 0 0 Z " fill="#606F99" transform="translate(51,126)"/>
<path d="M0 0 C1.32 0 2.64 0 4 0 C4.66 0.99 5.32 1.98 6 3 C5.01 4.485 5.01 4.485 4 6 C4.33 6.66 4.66 7.32 5 8 C5.08400529 9.59447464 5.10727467 11.19240545 5.09765625 12.7890625 C5.09282227 14.20058594 5.09282227 14.20058594 5.08789062 15.640625 C5.07951172 16.62546875 5.07113281 17.6103125 5.0625 18.625 C5.05798828 19.61757812 5.05347656 20.61015625 5.04882812 21.6328125 C5.03702145 24.0886016 5.020554 26.54427104 5 29 C4.34 29.33 3.68 29.66 3 30 C3.02320313 29.44054687 3.04640625 28.88109375 3.0703125 28.3046875 C3.28613849 18.71584724 1.5853008 9.42611287 0 0 Z " fill="#4B546F" transform="translate(193,91)"/>
<path d="M0 0 C1.32423286 3.97269858 0.02447003 6.31038728 -1.5 10 C-1.77046143 10.66483398 -2.04092285 11.32966797 -2.31958008 12.01464844 C-5.38448829 19.28932649 -9.16171732 26.56739859 -15 32 C-15 28 -15 28 -13 26 C-13.33 25.01 -13.66 24.02 -14 23 C-13.38125 22.938125 -12.7625 22.87625 -12.125 22.8125 C-9.72238859 22.171081 -9.72238859 22.171081 -8.75 19.4375 C-8.5025 18.633125 -8.255 17.82875 -8 17 C-7.34 17 -6.68 17 -6 17 C-5.72736328 16.1646875 -5.72736328 16.1646875 -5.44921875 15.3125 C-3.75137815 10.15803009 -1.93577765 5.06989385 0 0 Z " fill="#505A76" transform="translate(209,149)"/>
<path d="M0 0 C0.96099609 0.00902344 1.92199219 0.01804687 2.91210938 0.02734375 C5.25417805 0.05064792 7.59569792 0.08335942 9.9375 0.125 C9.9375 0.785 9.9375 1.445 9.9375 2.125 C9.21159668 2.14481934 8.48569336 2.16463867 7.73779297 2.18505859 C4.42901525 2.2806819 1.1208367 2.39021007 -2.1875 2.5 C-3.32960938 2.5309375 -4.47171875 2.561875 -5.6484375 2.59375 C-6.75703125 2.63242188 -7.865625 2.67109375 -9.0078125 2.7109375 C-10.02375488 2.7423584 -11.03969727 2.7737793 -12.08642578 2.80615234 C-15.30438142 3.15091445 -18.0362359 4.00050812 -21.0625 5.125 C-20.7325 4.135 -20.4025 3.145 -20.0625 2.125 C-13.87412103 -0.55353865 -6.59745162 -0.11936934 0 0 Z " fill="#576694" transform="translate(554.0625,74.875)"/>
<path d="M0 0 C1.03345938 3.10037814 0.76664566 4.59024331 0.26953125 7.71875 C-0.75582126 16.39709586 -0.29413182 23.90192595 3 32 C0 31 0 31 -0.94921875 29.20703125 C-3.52345765 20.85778022 -5.02723905 10.90561357 -1.5 2.625 C-1.005 1.75875 -0.51 0.8925 0 0 Z " fill="#556496" transform="translate(718,116)"/>
<path d="M0 0 C-1.6436814 1.68933922 -3.3142876 3.35259924 -5 5 C-5.61875 5.61875 -6.2375 6.2375 -6.875 6.875 C-10.06963157 8.56627554 -12.56561409 7.72650471 -16 7 C-16 6.01 -16 5.02 -16 4 C-14.1128125 3.566875 -14.1128125 3.566875 -12.1875 3.125 C-7.58797863 2.06937214 -4.88074341 -0.26382397 0 0 Z " fill="#434347" transform="translate(401,142)"/>
<path d="M0 0 C0.95777344 0.09152344 1.91554688 0.18304688 2.90234375 0.27734375 C9.97026565 0.98513283 9.97026565 0.98513283 12.25 2.125 C12.25 2.785 12.25 3.445 12.25 4.125 C11.54786377 3.96652588 10.84572754 3.80805176 10.12231445 3.64477539 C7.14552459 3.10609408 4.31516197 2.91708274 1.29296875 2.80859375 C0.18115234 2.76669922 -0.93066406 2.72480469 -2.07617188 2.68164062 C-3.22666016 2.64232422 -4.37714844 2.60300781 -5.5625 2.5625 C-6.73232422 2.51931641 -7.90214844 2.47613281 -9.10742188 2.43164062 C-11.98817031 2.32581721 -14.86900123 2.22373175 -17.75 2.125 C-17.42 1.465 -17.09 0.805 -16.75 0.125 C-11.1841955 -1.45743461 -5.66031859 -0.59623055 0 0 Z " fill="#52619B" transform="translate(565.75,88.875)"/>
<path d="M0 0 C2.50037734 2.17424117 3.43628586 3.73045798 4 7 C4.61875 7.04125 5.2375 7.0825 5.875 7.125 C6.57625 7.41375 7.2775 7.7025 8 8 C9.0625 10.75 9.0625 10.75 10 14 C12.06997391 18.04137763 14.70952536 20.88738885 18 24 C17.67 24.66 17.34 25.32 17 26 C0 8.56712963 0 8.56712963 0 0 Z " fill="#59607C" transform="translate(22,162)"/>
<path d="M0 0 C6.44834522 0.52561064 12.03401485 1.73322992 18.125 3.875 C18.88425781 4.13152344 19.64351562 4.38804688 20.42578125 4.65234375 C25.04953989 6.23604077 29.53170148 8.02067413 34 10 C30.29274944 11.37305576 28.54735016 10.52606802 25 9 C18.03649235 6.15253684 11.39509766 3.56948263 3.92578125 2.45703125 C2 2 2 2 0 0 Z " fill="#535B73" transform="translate(123,19)"/>
<path d="M0 0 C0.99 0.66 1.98 1.32 3 2 C1.54980469 2.56267578 1.54980469 2.56267578 0.0703125 3.13671875 C-7.47660647 6.09336379 -14.83293709 9.1888089 -22 13 C-21.18359375 10.5703125 -21.18359375 10.5703125 -20 8 C-17.0625 6.875 -17.0625 6.875 -14 6 C-12.16310524 4.50113129 -12.16310524 4.50113129 -11 3 C-10.67 3.33 -10.34 3.66 -10 4 C-8.9171875 3.566875 -8.9171875 3.566875 -7.8125 3.125 C-6.4203125 2.568125 -6.4203125 2.568125 -5 2 C-3.700625 1.38125 -3.700625 1.38125 -2.375 0.75 C-1.199375 0.37875 -1.199375 0.37875 0 0 Z " fill="#5C6682" transform="translate(89,33)"/>
<path d="M0 0 C0.73046875 1.7421875 0.73046875 1.7421875 1.1875 3.875 C1.34605469 4.57367188 1.50460937 5.27234375 1.66796875 5.9921875 C2.26661464 9.61223442 2 13.33558985 2 17 C-1.86968719 13.13031281 -2.47193857 8.09775984 -3.4375 2.890625 C-3.623125 2.26671875 -3.80875 1.6428125 -4 1 C-4.66 0.67 -5.32 0.34 -6 0 C-3 -1 -3 -1 0 0 Z " fill="#373A47" transform="translate(402,118)"/>
<path d="M0 0 C3.3 0 6.6 0 10 0 C8.515 1.485 8.515 1.485 7 3 C4.3125 2.6875 4.3125 2.6875 2 2 C2 4.64 2 7.28 2 10 C4.31 10.33 6.62 10.66 9 11 C9 11.33 9 11.66 9 12 C6.03 12 3.06 12 0 12 C0 8.04 0 4.08 0 0 Z " fill="#52638F" transform="translate(673,103)"/>
<path d="M0 0 C1.65 0 3.3 0 5 0 C4.67 0.99 4.34 1.98 4 3 C3.34 3 2.68 3 2 3 C2 11.58 2 20.16 2 29 C1.67 29 1.34 29 1 29 C0.35782702 19.32153574 -0.16831537 9.70618661 0 0 Z " fill="#406893" transform="translate(548,92)"/>
<path d="M0 0 C2.55088723 1.05553954 3.85389582 1.79910675 5.5 4.0625 C7.24509481 6.3165808 8.23423473 6.61851514 11 7 C11 6.34 11 5.68 11 5 C11.99 5.33 12.98 5.66 14 6 C14 6.99 14 7.98 14 9 C14.66 9.33 15.32 9.66 16 10 C16 10.66 16 11.32 16 12 C10.03975571 11.29879479 5.94300605 8.29919637 2.125 3.8125 C0 1 0 1 0 0 Z " fill="#52639A" transform="translate(720,149)"/>
<path d="M0 0 C0.33 0.66 0.66 1.32 1 2 C-1.62770319 6.41454135 -4.38767781 9.41425119 -8.4140625 12.60546875 C-10.25603629 14.10395147 -10.25603629 14.10395147 -12 17 C-12.66 17 -13.32 17 -14 17 C-12.70396588 14.17131143 -11.30810402 12.0298979 -9.1796875 9.765625 C-8.64472656 9.19199219 -8.10976563 8.61835937 -7.55859375 8.02734375 C-7.00300781 7.44082031 -6.44742188 6.85429688 -5.875 6.25 C-5.31167969 5.64800781 -4.74835938 5.04601562 -4.16796875 4.42578125 C-2.78275854 2.94665849 -1.3919271 1.47280359 0 0 Z " fill="#4D557B" transform="translate(70,98)"/>
<path d="M0 0 C0 3 0 3 -1.6171875 4.71875 C-7.1503689 9.08402806 -12.11426825 11.4906016 -19 13 C-19.33 12.34 -19.66 11.68 -20 11 C-19.26394531 10.74605469 -18.52789063 10.49210938 -17.76953125 10.23046875 C-16.79371094 9.88628906 -15.81789063 9.54210937 -14.8125 9.1875 C-13.84957031 8.85105469 -12.88664063 8.51460937 -11.89453125 8.16796875 C-7.05767465 6.21625468 -3.54909893 3.81199515 0 0 Z " fill="#515F92" transform="translate(595,146)"/>
<path d="M0 0 C0.33 0.66 0.66 1.32 1 2 C0.32386262 3.8208261 -0.44312312 5.60821786 -1.25 7.375 C-3.89562593 13.46215047 -5.58834684 19.52705379 -7 26 C-7.33 26 -7.66 26 -8 26 C-8.96551275 21.75174388 -9.11867705 19.76653697 -7 16 C-6.61709538 14.00889599 -6.27395385 12.00899487 -6 10 C-5.34 10 -4.68 10 -4 10 C-3.8453125 8.9171875 -3.8453125 8.9171875 -3.6875 7.8125 C-2.94013068 4.75508007 -1.71954811 2.61670365 0 0 Z " fill="#5A637C" transform="translate(37,76)"/>
<path d="M0 0 C-5.90662452 4.03059537 -10.87854843 4.78680154 -17.9375 5.25 C-18.90751953 5.32734375 -19.87753906 5.4046875 -20.87695312 5.484375 C-23.25057854 5.67145878 -25.62423294 5.84291394 -28 6 C-28 5.34 -28 4.68 -28 4 C-26.44152344 3.83564453 -26.44152344 3.83564453 -24.8515625 3.66796875 C-17.58947386 2.85671311 -10.74367843 1.96426466 -3.8203125 -0.51171875 C-2 -1 -2 -1 0 0 Z " fill="#525973" transform="translate(143,201)"/>
<path d="M0 0 C1.5070445 3.01408899 2.82393437 5.94018437 4.0625 9.0625 C4.40410156 9.91972656 4.74570312 10.77695313 5.09765625 11.66015625 C5.77753478 13.42313131 6.4024788 15.20743639 7 17 C6.01 17 5.02 17 4 17 C3.71125 16.030625 3.4225 15.06125 3.125 14.0625 C2.35785318 10.89335797 2.35785318 10.89335797 0 10 C0 6.7 0 3.4 0 0 Z " fill="#4F61A1" transform="translate(728,129)"/>
<path d="M0 0 C0.66 0 1.32 0 2 0 C1.34580901 5.06998019 -0.8546409 9.41990777 -3 14 C-3.66 13.67 -4.32 13.34 -5 13 C-4.34 9.7 -3.68 6.4 -3 3 C-2.34 3 -1.68 3 -1 3 C-0.67 2.01 -0.34 1.02 0 0 Z " fill="#3E3F48" transform="translate(379,115)"/>
<path d="M0 0 C0.66 0.33 1.32 0.66 2 1 C1.4375 2.875 1.4375 2.875 0 5 C-2.31939207 5.7136591 -4.65523449 6.3747292 -7 7 C-9.13599229 8.20062311 -11.01687888 9.54893577 -13 11 C-13.66 10.34 -14.32 9.68 -15 9 C-12.54732365 7.46931512 -10.08866106 5.95031377 -7.625 4.4375 C-6.92632812 3.99986328 -6.22765625 3.56222656 -5.5078125 3.11132812 C-3.70814097 2.01249022 -1.85677657 0.99932133 0 0 Z " fill="#556086" transform="translate(161,119)"/>
<path d="M0 0 C3.14194405 2.64983233 4.53819794 5.81048488 6.25 9.5 C7.06210938 11.21703125 7.06210938 11.21703125 7.890625 12.96875 C9 16 9 16 8 19 C6 16 6 16 6 13 C5.34 12.67 4.68 12.34 4 12 C3.31974363 10.00458132 2.65509503 8.00382009 2 6 C1.0436126 4.30792999 0.05589069 2.63183107 -1 1 C-0.67 0.67 -0.34 0.34 0 0 Z " fill="#596181" transform="translate(200,70)"/>
<path d="M0 0 C0.66 0.33 1.32 0.66 2 1 C0.49637741 4.78716158 -1.05487001 8.55245187 -2.625 12.3125 C-3.07101563 13.38113281 -3.51703125 14.44976562 -3.9765625 15.55078125 C-4.48316406 16.76314453 -4.48316406 16.76314453 -5 18 C-5.66 17.67 -6.32 17.34 -7 17 C-5.24009216 11.08030998 -2.60305395 5.58365008 0 0 Z " fill="#575E7D" transform="translate(191,148)"/>
<path d="M0 0 C0.99 0.33 1.98 0.66 3 1 C5.22574335 1.22451458 7.45581519 1.40782878 9.6875 1.5625 C10.86699219 1.64628906 12.04648437 1.73007813 13.26171875 1.81640625 C14.61716797 1.90728516 14.61716797 1.90728516 16 2 C15.01 2.33 14.02 2.66 13 3 C12.67 3.66 12.34 4.32 12 5 C10.3739713 4.93999894 8.74898451 4.8512115 7.125 4.75 C5.76761719 4.68039063 5.76761719 4.68039063 4.3828125 4.609375 C2 4 2 4 0.6796875 1.953125 C0.45539062 1.30859375 0.23109375 0.6640625 0 0 Z " fill="#54629B" transform="translate(629,146)"/>
<path d="M0 0 C2.69082872 0.17635452 5.32851446 0.61835921 8 1 C6.73046875 2.46484375 5.4609375 3.9296875 4.19140625 5.39453125 C2.79128769 7.10712971 2.79128769 7.10712971 2 10 C1.34 10 0.68 10 0 10 C0.20625 8.88625 0.4125 7.7725 0.625 6.625 C0.74875 5.42875 0.8725 4.2325 1 3 C0.34 2.34 -0.32 1.68 -1 1 C-0.67 0.67 -0.34 0.34 0 0 Z " fill="#5162A2" transform="translate(730,114)"/>
<path d="M0 0 C0.66 0.33 1.32 0.66 2 1 C-1.78756477 4.61139896 -1.78756477 4.61139896 -4 6 C-6.875 5.8125 -6.875 5.8125 -9 5 C-8.34 3.68 -7.68 2.36 -7 1 C-6.401875 1.20625 -5.80375 1.4125 -5.1875 1.625 C-2.71549154 2.30671915 -2.71549154 2.30671915 0 0 Z " fill="#454A57" transform="translate(138,153)"/>
<path d="M0 0 C-2.75264252 3.05849168 -5.00751252 4.87391379 -9 6 C-9.99 5.67 -10.98 5.34 -12 5 C-4.88610478 -0.74031891 -4.88610478 -0.74031891 0 0 Z " fill="#3B3B3C" transform="translate(401,142)"/>
<path d="M0 0 C0.66 0.33 1.32 0.66 2 1 C0.73548068 2.31858428 -0.53685475 3.62967631 -1.8125 4.9375 C-2.52019531 5.66839844 -3.22789062 6.39929688 -3.95703125 7.15234375 C-6 9 -6 9 -9 10 C-9 8.68 -9 7.36 -9 6 C-8.2575 5.7525 -7.515 5.505 -6.75 5.25 C-3.79875938 3.90852699 -2.15185026 2.39094474 0 0 Z " fill="#4A517F" transform="translate(168,124)"/>
<path d="M0 0 C2 1.375 2 1.375 4 3 C4 3.66 4 4.32 4 5 C0.06329512 6.31223496 -2.12488144 5.24296256 -6 4 C-6 3.34 -6 2.68 -6 2 C-5.01 1.67 -4.02 1.34 -3 1 C-2.67 1.33 -2.34 1.66 -2 2 C-1.34 1.34 -0.68 0.68 0 0 Z " fill="#31314B" transform="translate(393,112)"/>
<path d="M0 0 C-0.33 1.65 -0.66 3.3 -1 5 C-1.99 5 -2.98 5 -4 5 C-6.00309329 5.31421071 -8.00371336 5.6451046 -10 6 C-7.35570758 3.077361 -4.105808 0 0 0 Z " fill="#576181" transform="translate(64,31)"/>
<path d="M0 0 C0.66 0 1.32 0 2 0 C2.66 1.65 3.32 3.3 4 5 C3.01 5 2.02 5 1 5 C1 9.29 1 13.58 1 18 C0.67 18 0.34 18 0 18 C0 12.06 0 6.12 0 0 Z " fill="#566794" transform="translate(609,122)"/>
<path d="M0 0 C0 0.99 0 1.98 0 3 C-1.65 2.67 -3.3 2.34 -5 2 C-5 2.66 -5 3.32 -5 4 C-6.32 4.33 -7.64 4.66 -9 5 C-9 3.68 -9 2.36 -9 1 C-5.8035914 -0.06546953 -3.34252724 -0.07427838 0 0 Z " fill="#424246" transform="translate(392,112)"/>
<path d="M0 0 C4.13621084 3.3810038 7.81316569 6.66590534 11 11 C5.47931526 9.65049929 5.47931526 9.65049929 3.25 6.625 C2.8375 5.75875 2.425 4.8925 2 4 C1.33526081 2.66570467 0.66893327 1.33219762 0 0 Z " fill="#4A5A82" transform="translate(100,107)"/>
<path d="M0 0 C0.598125 0.165 1.19625 0.33 1.8125 0.5 C4.11344336 1.1114124 4.11344336 1.1114124 7 1 C1.25 6 1.25 6 -1 6 C-0.67 4.02 -0.34 2.04 0 0 Z " fill="#596285" transform="translate(171,196)"/>
<path d="M0 0 C3.7785059 2.43774574 3.7785059 2.43774574 4.8125 5.0625 C5 7 5 7 4 9 C3.34 9 2.68 9 2 9 C0.14223235 5.86501708 -0.20140476 3.62528568 0 0 Z " fill="#44464B" transform="translate(337,83)"/>
<path d="M0 0 C0.99 0.66 1.98 1.32 3 2 C0.87875034 2.86343824 -1.24713072 3.71550648 -3.375 4.5625 C-5.15003906 5.27599609 -5.15003906 5.27599609 -6.9609375 6.00390625 C-10 7 -10 7 -12 6 C-9.73013832 3.73013832 -7.98914832 3.11224124 -5 2 C-4.13375 1.5875 -3.2675 1.175 -2.375 0.75 C-1.59125 0.5025 -0.8075 0.255 0 0 Z " fill="#565D7A" transform="translate(89,33)"/>
<path d="M0 0 C2 1 2 1 2 1 Z M0 2 C-1.32 2.33 -2.64 2.66 -4 3 C-4 3.66 -4 4.32 -4 5 C-6.97 5.66 -9.94 6.32 -13 7 C-9.24729562 3.24729562 -5.35036719 0.21654427 0 2 Z " fill="#596180" transform="translate(77,24)"/>
<path d="M0 0 C0.66 0.33 1.32 0.66 2 1 C-1.3 4.3 -4.6 7.6 -8 11 C-8 7.45459812 -7.40614728 6.93992636 -5.125 4.375 C-4.59132812 3.76398438 -4.05765625 3.15296875 -3.5078125 2.5234375 C-2 1 -2 1 0 0 Z " fill="#555C75" transform="translate(189,184)"/>
<path d="M0 0 C0 0.99 0 1.98 0 3 C-2.8125 4.5625 -2.8125 4.5625 -6 6 C-6.99 5.67 -7.98 5.34 -9 5 C-8.34 5 -7.68 5 -7 5 C-6.67 4.01 -6.34 3.02 -6 2 C-3 0 -3 0 0 0 Z " fill="#575F6F" transform="translate(141,150)"/>
<path d="M0 0 C0.66 0.33 1.32 0.66 2 1 C-0.31 3.31 -2.62 5.62 -5 8 C-5.66 7.01 -6.32 6.02 -7 5 C-4.88437775 2.67281553 -2.94982021 1.14186589 0 0 Z " fill="#545F88" transform="translate(150,140)"/>
<path d="M0 0 C1.65 0.33 3.3 0.66 5 1 C4.67 1.99 4.34 2.98 4 4 C1 5 1 5 -2 5 C-1.34 3.35 -0.68 1.7 0 0 Z " fill="#6D7FB6" transform="translate(46,125)"/>
<path d="M0 0 C0 0.66 0 1.32 0 2 C-0.99 2.495 -0.99 2.495 -2 3 C-2.28875 3.825 -2.5775 4.65 -2.875 5.5 C-4 8 -4 8 -6.125 8.8125 C-6.74375 8.874375 -7.3625 8.93625 -8 9 C-6.68994234 5.06982701 -4.75047804 0 0 0 Z " fill="#546494" transform="translate(727,107)"/>
<path d="M0 0 C0.33 0.99 0.66 1.98 1 3 C0.01 3.33 -0.98 3.66 -2 4 C-2.70151152 5.3153341 -3.36525925 6.65117592 -4 8 C-5.625 9.75 -5.625 9.75 -7 11 C-7.66 10.67 -8.32 10.34 -9 10 C-6.03 6.7 -3.06 3.4 0 0 Z " fill="#555D77" transform="translate(177,174)"/>
<path d="M0 0 C1.32 0 2.64 0 4 0 C4.33 1.98 4.66 3.96 5 6 C4.34 6 3.68 6 3 6 C3 5.34 3 4.68 3 4 C1.35 3.67 -0.3 3.34 -2 3 C-1.34 2.01 -0.68 1.02 0 0 Z " fill="#4E619C" transform="translate(750,147)"/>
<path d="M0 0 C0.66 0 1.32 0 2 0 C1.34 2.31 0.68 4.62 0 7 C-1.65 7.33 -3.3 7.66 -5 8 C-5 7.34 -5 6.68 -5 6 C-3.68 5.67 -2.36 5.34 -1 5 C-0.67 3.35 -0.34 1.7 0 0 Z " fill="#383849" transform="translate(400,162)"/>
<path d="M0 0 C0.66 0.33 1.32 0.66 2 1 C1.39816251 3.02045442 0.72693904 5.02111039 0 7 C-0.99 7.495 -0.99 7.495 -2 8 C-2 5.69 -2 3.38 -2 1 C-1.34 0.67 -0.68 0.34 0 0 Z " fill="#51659C" transform="translate(598,138)"/>
<path d="M0 0 C6.52307692 0.61538462 6.52307692 0.61538462 8.9375 2.5625 C9.288125 3.036875 9.63875 3.51125 10 4 C5.66905042 4 3.72965139 3.03435531 0 1 C0 0.67 0 0.34 0 0 Z " fill="#575F81" transform="translate(61,205)"/>
<path d="M0 0 C7.57142857 1.85714286 7.57142857 1.85714286 10 5 C9.67 5.66 9.34 6.32 9 7 C7.88625 6.071875 7.88625 6.071875 6.75 5.125 C4.51198812 3.39562719 2.56260013 2.13893339 0 1 C0 0.67 0 0.34 0 0 Z " fill="#556690" transform="translate(643,113)"/>
<path d="M0 0 C2.64 0 5.28 0 8 0 C6.875 1.5 6.875 1.5 5 3 C1.8125 3.1875 1.8125 3.1875 -1 3 C-0.67 2.01 -0.34 1.02 0 0 Z " fill="#586796" transform="translate(675,103)"/>
<path d="M0 0 C2.37948772 0.17625835 3.70225849 0.69719773 5.37890625 2.40234375 C6.62115486 3.90649092 7.81376056 5.45129851 9 7 C6 7 6 7 3.8125 5.125 C2 3 2 3 2 1 C1.34 0.67 0.68 0.34 0 0 Z " fill="#404048" transform="translate(466,103)"/>
<path d="M0 0 C0.66 0.33 1.32 0.66 2 1 C0.1875 3 0.1875 3 -2 5 C-2.99 5 -3.98 5 -5 5 C-5 4.01 -5 3.02 -5 2 C-2.625 0.9375 -2.625 0.9375 0 0 Z " fill="#3D3F46" transform="translate(447,103)"/>
<path d="M0 0 C1.09898702 3.29696105 0.87124444 4.40494903 0.0625 7.6875 C-0.22947266 8.89986328 -0.22947266 8.89986328 -0.52734375 10.13671875 C-0.68332031 10.75160156 -0.83929687 11.36648437 -1 12 C-1.33 12 -1.66 12 -2 12 C-3.01911045 8.10885099 -3.16782969 6.39403493 -1.5625 2.625 C-1.046875 1.75875 -0.53125 0.8925 0 0 Z " fill="#505A74" transform="translate(31,90)"/>
<path d="" fill="#000000" transform="translate(0,0)"/>
<path d="" fill="#000000" transform="translate(0,0)"/>
</svg>
