<?xml version="1.0" encoding="UTF-8"?>
<svg version="1.1" xmlns="http://www.w3.org/2000/svg" width="602" height="178">
<path d="M0 0 C198.66 0 397.32 0 602 0 C602 58.74 602 117.48 602 178 C403.34 178 204.68 178 0 178 C0 119.26 0 60.52 0 0 Z " fill="#FDFDFD" transform="translate(0,0)"/>
<path d="M0 0 C11.36940787 9.2178267 20.11520773 23.82491865 22.5234375 38.27734375 C23.68004391 51.79705386 23.83914613 65.01367662 17.5234375 77.27734375 C17.00394531 78.31761719 16.48445313 79.35789062 15.94921875 80.4296875 C7.78421547 95.52257235 -4.58635851 105.91732406 -20.4765625 112.27734375 C-36.57779289 117.02708987 -53.68692895 115.43975921 -68.48828125 107.703125 C-84.62276965 98.04943529 -95.12185607 84.2538582 -100.4765625 66.27734375 C-104.49775067 48.14257357 -101.5136738 31.37532005 -92.3515625 15.52734375 C-82.26698703 0.8528521 -68.78933717 -9.02789557 -51.3359375 -13.1015625 C-31.92620791 -16.22519307 -15.88512214 -11.04943039 0 0 Z " fill="#FCFCFD" transform="translate(131.4765625,39.72265625)"/>
<path d="M0 0 C1.54492812 1.34787096 3.06579497 2.72377443 4.5625 4.125 C5.83867187 5.28322266 5.83867187 5.28322266 7.140625 6.46484375 C20.42212029 19.05045231 28.27265097 34.68844367 28.765625 52.98828125 C28.78668752 55.13797443 28.80219552 57.28772833 28.8125 59.4375 C28.8434375 61.03368164 28.8434375 61.03368164 28.875 62.66210938 C28.92552093 73.01258507 26.62399325 81.98587038 21.9375 91.1875 C21.59195068 91.86941406 21.24640137 92.55132812 20.89038086 93.25390625 C17.63888986 99.40864432 13.60213516 104.31916235 8.5625 109.125 C7.85351562 109.83011719 7.14453125 110.53523438 6.4140625 111.26171875 C-8.81601225 125.69455132 -28.41868058 131.6358886 -49.0078125 131.34375 C-68.66619808 130.66264526 -84.65809774 121.61980187 -98.4375 108.125 C-99.05238281 107.54621094 -99.66726562 106.96742188 -100.30078125 106.37109375 C-112.81681275 93.50979241 -118.73645303 75.07055759 -118.875 57.5 C-118.61324257 38.98436585 -112.58216235 23.14919343 -100.4375 9.125 C-99.80585937 8.30257812 -99.17421875 7.48015625 -98.5234375 6.6328125 C-90.11816484 -3.47240295 -77.80899761 -10.04572693 -65.4375 -13.875 C-64.756875 -14.101875 -64.07625 -14.32875 -63.375 -14.5625 C-42.28378241 -20.49440495 -16.94342951 -13.09867633 0 0 Z M-89.4375 12.125 C-90.1490625 12.81335938 -90.860625 13.50171875 -91.59375 14.2109375 C-102.32234424 25.31090616 -108.03363589 40.15385065 -107.8125 55.4375 C-107.80162354 56.45642334 -107.79074707 57.47534668 -107.77954102 58.52514648 C-107.42423311 75.29165706 -101.3998015 91.06367283 -89.4375 103.125 C-76.8723108 114.40263477 -63.01184154 121.75228401 -45.875 121.4375 C-44.99392578 121.44072266 -44.11285156 121.44394531 -43.20507812 121.44726562 C-27.04298008 121.3160604 -12.37350369 114.21053706 -0.8671875 102.9140625 C6.88676922 94.01321829 11.86334083 84.30504804 15.5625 73.125 C16.0575 71.64 16.0575 71.64 16.5625 70.125 C17.49388867 57.34249339 18.03927224 43.95140506 12.5625 32.125 C12.15 31.20332031 11.7375 30.28164063 11.3125 29.33203125 C5.66222037 17.95121233 -2.52396084 8.63307381 -13.4375 2.125 C-14.30117187 1.58101562 -15.16484375 1.03703125 -16.0546875 0.4765625 C-40.61583762 -14.1177441 -69.95112951 -7.29641593 -89.4375 12.125 Z " fill="#596B95" transform="translate(137.4375,32.875)"/>
<path d="M0 0 C5.4907678 3.44633298 8.81297965 8.83347019 10.8359375 14.90234375 C12.01530448 26.48551898 11.88794556 38.36037432 4.296875 47.8203125 C-8.01288137 59.63417822 -24.27455948 55.90234375 -40.1640625 55.90234375 C-40.1640625 36.10234375 -40.1640625 16.30234375 -40.1640625 -4.09765625 C-27.10549492 -7.36229815 -11.99148549 -6.08232387 0 0 Z " fill="#4E6EB3" transform="translate(443.1640625,64.09765625)"/>
<path d="M0 0 C3.6875 1.5 3.6875 1.5 6 3 C6.33 2.34 6.66 1.68 7 1 C9.97 1 12.94 1 16 1 C16.12405345 7.54696828 16.21455514 14.09324502 16.2746582 20.64111328 C16.29972607 22.86616949 16.33378944 25.09114398 16.37719727 27.31591797 C16.43818809 30.52331765 16.46628784 33.72962407 16.48828125 36.9375 C16.51408768 37.92427734 16.5398941 38.91105469 16.56648254 39.92773438 C16.56913879 46.54186501 15.29558905 50.89700222 11 56 C5.43634441 60.94547164 -1.02189244 60.68014484 -8.15234375 60.40625 C-13.03710477 59.89049858 -15.94758869 58.70160754 -20 56 C-19.125 51.25 -19.125 51.25 -18 49 C-16.9790625 49.23589844 -16.9790625 49.23589844 -15.9375 49.4765625 C-9.18764442 50.67932932 -1.64489534 51.64682162 4.3125 47.9375 C6.25771807 44.55137966 6.77185748 41.87842283 7 38 C6.34 38 5.68 38 5 38 C5 38.66 5 39.32 5 40 C-0.00043893 42.99069314 -5.35413832 42.60626703 -11 42 C-16.85062901 39.23424811 -20.88804878 34.75340301 -23.3125 28.75 C-24.62595954 21.58567525 -25.02658107 15.32497121 -21.34765625 8.82421875 C-15.48831233 0.89287495 -9.55713155 -0.80650899 0 0 Z " fill="#494C55" transform="translate(299,78)"/>
<path d="M0 0 C2.89453125 1.53515625 2.89453125 1.53515625 5 3 C5.33 2.34 5.66 1.68 6 1 C9.3 1 12.6 1 16 1 C16 14.53 16 28.06 16 42 C12.7 42 9.4 42 6 42 C6 41.01 6 40.02 6 39 C4.88625 39.66 3.7725 40.32 2.625 41 C-2.27018634 43.42593305 -6.61939699 43.86159983 -12 43 C-18.05382918 40.91166358 -22.33082967 36.40886899 -25.109375 30.734375 C-27.05604853 24.75774574 -27.18223571 17.49171943 -25.16015625 11.51953125 C-23.94888547 9.41102286 -22.66858605 7.76673817 -21 6 C-20.4534375 5.401875 -19.906875 4.80375 -19.34375 4.1875 C-13.71824386 -0.96126834 -7.33021715 -1.2107529 0 0 Z " fill="#4F6FB3" transform="translate(485,78)"/>
<path d="M0 0 C1.88154202 0.94580187 3.70113503 2.01309685 5.50390625 3.1015625 C5.50390625 2.1115625 5.50390625 1.1215625 5.50390625 0.1015625 C8.47390625 0.1015625 11.44390625 0.1015625 14.50390625 0.1015625 C14.50390625 13.6315625 14.50390625 27.1615625 14.50390625 41.1015625 C11.20390625 41.1015625 7.90390625 41.1015625 4.50390625 41.1015625 C4.17390625 40.4415625 3.84390625 39.7815625 3.50390625 39.1015625 C2.55515625 39.5965625 1.60640625 40.0915625 0.62890625 40.6015625 C-4.08697362 42.56968172 -8.46185402 43.03013416 -13.49609375 42.1015625 C-19.56361776 39.51338429 -23.26316949 35.98162082 -25.83984375 29.93359375 C-28.01242455 23.86847234 -28.81124404 17.70867594 -26.5546875 11.51953125 C-21.0966722 1.20234245 -11.54052503 -4.1538666 0 0 Z " fill="#4F6EB2" transform="translate(564.49609375,78.8984375)"/>
<path d="M0 0 C13.53 0 27.06 0 41 0 C41 2.97 41 5.94 41 9 C30.77 9 20.54 9 10 9 C10 14.94 10 20.88 10 27 C19.24 27 28.48 27 38 27 C38 29.97 38 32.94 38 36 C29.09 36 20.18 36 11 36 C11 43.92 11 51.84 11 60 C7.37 60 3.74 60 0 60 C0 40.2 0 20.4 0 0 Z " fill="#494C56" transform="translate(193,60)"/>
<path d="M0 0 C0.66 0 1.32 0 2 0 C3.21899414 1.24023438 3.21899414 1.24023438 4.72265625 3.09375 C10.55162674 9.94887319 17.05841841 16.16332295 23.4375 22.5 C24.75479059 23.81226585 26.07184986 25.12476395 27.38867188 26.4375 C30.5897861 29.62768506 33.79401865 32.81470651 37 36 C41.08769344 34.51128093 44.62357942 32.52855525 48.33203125 30.26171875 C49.22519295 29.717752 49.22519295 29.717752 50.13639832 29.16279602 C52.03062413 28.00791027 53.92156007 26.84775621 55.8125 25.6875 C57.07075659 24.91958268 58.32921838 24.15200148 59.58789062 23.38476562 C60.81516925 22.63552327 62.04238388 21.88617606 63.26953125 21.13671875 C64.15912033 20.5940889 64.15912033 20.5940889 65.06668091 20.04049683 C68.33319071 18.04194598 71.5559192 15.98854301 74.76171875 13.89453125 C75.83035156 13.26933594 76.89898437 12.64414063 78 12 C78.99 12.495 78.99 12.495 80 13 C79.23816406 13.68964844 78.47632813 14.37929687 77.69140625 15.08984375 C72.01005992 20.25369595 66.46186322 25.49208856 61.0703125 30.9609375 C58.54488545 33.4482449 55.88277553 35.73286893 53.1796875 38.0234375 C51.43433393 39.60614163 49.81552445 41.20874851 48.1953125 42.9140625 C47.46417236 43.67710693 47.46417236 43.67710693 46.71826172 44.45556641 C45.75305878 45.47084306 44.79852262 46.49638791 43.85595703 47.53271484 C42.515625 48.9375 42.515625 48.9375 40 51 C36.51700377 50.69813959 34.85794647 49.20754413 32.48828125 46.74951172 C31.82078857 46.06565399 31.1532959 45.38179626 30.46557617 44.67721558 C29.75506104 43.93553131 29.0445459 43.19384705 28.3125 42.4296875 C26.79452462 40.87865783 25.27628752 39.32788427 23.7578125 37.77734375 C21.37015865 35.32120375 18.98668999 32.86120356 16.60839844 30.39599609 C14.31212125 28.02153365 12.00088801 25.66246438 9.6875 23.3046875 C8.97698486 22.55895477 8.26646973 21.81322205 7.53442383 21.04489136 C6.86693115 20.36733795 6.19943848 19.68978455 5.51171875 18.99169922 C4.92865967 18.38848846 4.34560059 17.78527771 3.74487305 17.16378784 C2.0522992 15.76140659 2.0522992 15.76140659 -0.11021423 16.25549316 C-2.06702269 17.0264045 -3.73042295 17.90902488 -5.50390625 19.0390625 C-6.15746094 19.45172363 -6.81101562 19.86438477 -7.484375 20.28955078 C-8.17015625 20.73024902 -8.8559375 21.17094727 -9.5625 21.625 C-10.62017578 22.29571533 -10.62017578 22.29571533 -11.69921875 22.97998047 C-13.80260405 24.31515209 -15.90144739 25.65724988 -18 27 C-19.16498142 27.74018674 -20.33031326 28.47982243 -21.49609375 29.21875 C-24.00035682 30.80793125 -26.50168022 32.40149878 -29 34 C-29.33 33.34 -29.66 32.68 -30 32 C-29.34 32 -28.68 32 -28 32 C-27.75636719 31.42765625 -27.51273438 30.8553125 -27.26171875 30.265625 C-25.77482702 27.59566462 -24.01916092 25.86170993 -21.8125 23.75 C-18.24907699 20.27209914 -14.93261006 16.69341919 -11.6953125 12.9140625 C-9.41256455 10.33676643 -6.96475265 7.94876266 -4.50390625 5.54296875 C-2.86092288 3.9256345 -2.86092288 3.9256345 -1.1875 1.5625 C-0.795625 1.046875 -0.40375 0.53125 0 0 Z " fill="#51689C" transform="translate(68,68)"/>
<path d="M0 0 C19.73684211 0 19.73684211 0 25.58203125 5.484375 C29.95270909 10.92665154 29.75638595 17.54110834 29.421875 24.203125 C28.73784477 30.35939708 27.06255556 33.93744444 22.625 38.375 C14.86881422 43.17644834 9.65956109 42 0 42 C0 28.14 0 14.28 0 0 Z " fill="#F9FAFC" transform="translate(414,69)"/>
<path d="M0 0 C2.97 0 5.94 0 9 0 C9.33 7.26 9.66 14.52 10 22 C11.98 20.68 13.96 19.36 16 18 C20.98274977 17.111223 25.64581779 17.55681309 30.4375 19.125 C33.61575352 21.45055136 35.09068356 23.54792788 37 27 C37.33663684 29.75064877 37.47224142 32.07348366 37.390625 34.8046875 C37.38496521 35.5286673 37.37930542 36.25264709 37.37347412 36.99856567 C37.35123667 39.29140788 37.30106987 41.58263716 37.25 43.875 C37.22991841 45.43747729 37.21167055 46.99997929 37.1953125 48.5625 C37.15141416 52.3756133 37.08247971 56.18753402 37 60 C34.03 60 31.06 60 28 60 C27.99589111 59.17798096 27.99178223 58.35596191 27.98754883 57.5090332 C27.95460757 53.77612958 27.88395896 50.04485666 27.8125 46.3125 C27.80669922 45.01892578 27.80089844 43.72535156 27.79492188 42.39257812 C27.76591797 41.14541016 27.73691406 39.89824219 27.70703125 38.61328125 C27.6913208 37.46641846 27.67561035 36.31955566 27.65942383 35.13793945 C26.80627497 31.07813852 25.20236966 29.5573475 22 27 C18.08852059 26.44121723 15.28900312 26.76817646 12 29 C9.64290358 32.53564463 9.69990265 34.22025255 9.5859375 38.41796875 C9.52792969 40.29838867 9.52792969 40.29838867 9.46875 42.21679688 C9.42234375 44.18229492 9.42234375 44.18229492 9.375 46.1875 C9.33680662 47.5228116 9.29775409 48.85809892 9.2578125 50.19335938 C9.16340847 53.46209888 9.07782983 56.73083064 9 60 C6.03 60 3.06 60 0 60 C0 40.2 0 20.4 0 0 Z " fill="#454953" transform="translate(324,60)"/>
<path d="M0 0 C2.97 0 5.94 0 9 0 C9 3.63 9 7.26 9 11 C12.96 11 16.92 11 21 11 C21 13.64 21 16.28 21 19 C17.37 19 13.74 19 10 19 C10.33 26.92 10.66 34.84 11 43 C14.3 43.33 17.6 43.66 21 44 C21 46.64 21 49.28 21 52 C15.95106207 53.4192867 9.84598815 54.52850666 5.05078125 51.953125 C2.9079119 50.18901948 1.24695049 48.49390098 0 46 C-0.08543895 43.89471067 -0.10714725 41.78668843 -0.09765625 39.6796875 C-0.09443359 38.42285156 -0.09121094 37.16601562 -0.08789062 35.87109375 C-0.07951172 34.55238281 -0.07113281 33.23367187 -0.0625 31.875 C-0.05748489 30.53515789 -0.05292201 29.195314 -0.04882812 27.85546875 C-0.03701086 24.57026794 -0.02053617 21.28515603 0 18 C-2.31 18 -4.62 18 -7 18 C-7 15.69 -7 13.38 -7 11 C-4.69 11 -2.38 11 0 11 C0 7.37 0 3.74 0 0 Z " fill="#4B4F59" transform="translate(373,68)"/>
<path d="M0 0 C2.97 0 5.94 0 9 0 C9 3.63 9 7.26 9 11 C12.63 11 16.26 11 20 11 C20 13.31 20 15.62 20 18 C16.37 18 12.74 18 9 18 C9.14010035 21.97944615 9.28679559 25.95845381 9.4375 29.9375 C9.47681641 31.07380859 9.51613281 32.21011719 9.55664062 33.38085938 C9.59853516 34.46044922 9.64042969 35.54003906 9.68359375 36.65234375 C9.72025146 37.65257568 9.75690918 38.65280762 9.79467773 39.68334961 C9.74671841 41.96069188 9.74671841 41.96069188 11 43 C12.68183948 43.23287008 14.3712416 43.41264166 16.0625 43.5625 C16.98160156 43.64628906 17.90070312 43.73007813 18.84765625 43.81640625 C19.91306641 43.90728516 19.91306641 43.90728516 21 44 C21 46.64 21 49.28 21 52 C16.36613361 53.54462213 11.83402446 53.63442261 7 53 C3.82260811 51.35291871 1.62218258 49.24436516 0 46 C-0.08527628 43.96767366 -0.10716135 41.93252994 -0.09765625 39.8984375 C-0.09443359 38.68671875 -0.09121094 37.475 -0.08789062 36.2265625 C-0.07951172 34.95554688 -0.07113281 33.68453125 -0.0625 32.375 C-0.05798828 31.09625 -0.05347656 29.8175 -0.04882812 28.5 C-0.03701203 25.33328708 -0.02053815 22.16666644 0 19 C-2.31 19 -4.62 19 -7 19 C-7 16.36 -7 13.72 -7 11 C-4.69 11 -2.38 11 0 11 C0 7.37 0 3.74 0 0 Z " fill="#4B6CB1" transform="translate(513,68)"/>
<path d="M0 0 C3.3 0 6.6 0 10 0 C10 19.8 10 39.6 10 60 C6.7 60 3.4 60 0 60 C0 40.2 0 20.4 0 0 Z " fill="#4A4D57" transform="translate(240,60)"/>
<path d="M0 0 C1.11181641 0.09667969 1.11181641 0.09667969 2.24609375 0.1953125 C5.52093029 1.15622575 7.22860009 2.37497179 9.5625 4.875 C10.19140625 8.37109375 10.19140625 8.37109375 10.125 12.3125 C10.12628906 13.61058594 10.12757813 14.90867187 10.12890625 16.24609375 C9.49220741 20.32535735 8.45002749 21.98747251 5.5625 24.875 C1.84539437 26.73355282 -2.39027281 26.45408439 -6.4375 25.875 C-9.78375024 23.34823961 -11.11727847 21.83566458 -12.4375 17.875 C-12.96779448 12.82416241 -12.98512715 8.97025429 -10.6875 4.375 C-7.39793804 0.71993116 -4.91364197 -0.52798233 0 0 Z " fill="#F8F9FB" transform="translate(481.4375,86.125)"/>
<path d="M0 0 C2.60847629 1.49745861 4.87028902 2.87028902 7 5 C7.23484315 7.60408358 7.37089647 10.1409791 7.4375 12.75 C7.48326172 13.46671875 7.52902344 14.1834375 7.57617188 14.921875 C7.64021792 17.95153116 7.65376759 20.11635973 5.8112793 22.60668945 C1.75305766 26.24834944 -1.44303014 26.80979453 -6.65625 26.56640625 C-10.68190205 25.59354034 -11.86168304 23.44889832 -14 20 C-15.73571782 16.52856436 -15.46645793 12.79556182 -15 9 C-11.40401822 2.06489228 -7.96067419 -0.96077102 0 0 Z " fill="#F9F9FB" transform="translate(562,86)"/>
<path d="M0 0 C2.60847629 1.49745861 4.87028902 2.87028902 7 5 C7.20798937 7.43644696 7.32444728 9.80968226 7.375 12.25 C7.41238281 12.91902344 7.44976562 13.58804688 7.48828125 14.27734375 C7.55839033 18.24240174 7.14697935 19.82094372 4.6015625 22.921875 C0.54857614 26.15939563 -1.79055736 26.44147819 -7 26 C-10.53760387 23.79882426 -12.43394646 21.8219985 -14 18 C-14.7164344 12.95163669 -14.54701546 9.05630571 -12.1875 4.5 C-8.313479 0.07254743 -5.76941105 -0.58671977 0 0 Z " fill="#F5F5F5" transform="translate(299,86)"/>
<path d="M0 0 C3.3 0 6.6 0 10 0 C10 13.53 10 27.06 10 41 C6.7 41 3.4 41 0 41 C0 27.47 0 13.94 0 0 Z " fill="#4A4E58" transform="translate(259,79)"/>
<path d="M0 0 C3.0625 0.3125 3.0625 0.3125 4.9375 1.5 C6.48479478 3.99286381 6.56655716 5.43217335 6.0625 8.3125 C4.4375 10.1875 4.4375 10.1875 2.0625 11.3125 C-1.0625 11.1875 -1.0625 11.1875 -3.9375 10.3125 C-5.9375 7.3125 -5.9375 7.3125 -5.6875 4.75 C-4.58727173 1.17425813 -3.7416128 0.39804391 0 0 Z " fill="#4D5059" transform="translate(263.9375,59.6875)"/>
<path d="M0 0 C0.66 0.33 1.32 0.66 2 1 C0.06775868 2.81840385 -1.87033908 4.62974468 -3.8125 6.4375 C-4.63331055 7.2119043 -4.63331055 7.2119043 -5.47070312 8.00195312 C-7.96059942 10.31076605 -9.74075542 11.91358514 -13 13 C-13 12.34 -13 11.68 -13 11 C-13.99 11.33 -14.98 11.66 -16 12 C-14.89280571 8.67841714 -14.52974601 8.41279673 -11.69140625 6.703125 C-11.02689453 6.30222656 -10.36238281 5.90132813 -9.67773438 5.48828125 C-8.63069336 4.87533203 -8.63069336 4.87533203 -7.5625 4.25 C-6.86833984 3.82589844 -6.17417969 3.40179688 -5.45898438 2.96484375 C-3.67896541 1.90682667 -1.84238567 0.94524214 0 0 Z " fill="#61636B" transform="translate(146,80)"/>
<path d="M0 0 C0.66 1.32 1.32 2.64 2 4 C-0.97 5.65 -3.94 7.3 -7 9 C-7 8.34 -7 7.68 -7 7 C-6.34 7 -5.68 7 -5 7 C-4.731875 6.401875 -4.46375 5.80375 -4.1875 5.1875 C-3.01506533 3.02775192 -1.80630718 1.64209744 0 0 Z " fill="#6884C1" transform="translate(45,93)"/>
<path d="M0 0 C0.99 0.33 1.98 0.66 3 1 C2.07213211 2.00894372 1.13231567 3.00690907 0.1875 4 C-0.59560547 4.8353125 -0.59560547 4.8353125 -1.39453125 5.6875 C-3 7 -3 7 -6 7 C-6 6.34 -6 5.68 -6 5 C-3.1875 2.3125 -3.1875 2.3125 0 0 Z " fill="#5E6575" transform="translate(111,112)"/>
<path d="M0 0 C-0.8125 1.9375 -0.8125 1.9375 -2 4 C-2.99 4.33 -3.98 4.66 -5 5 C-5 4.34 -5 3.68 -5 3 C-5.99 3.33 -6.98 3.66 -8 4 C-7.67 3.01 -7.34 2.02 -7 1 C-4.53721199 -0.231394 -2.7204945 -0.07159196 0 0 Z " fill="#575961" transform="translate(138,88)"/>
</svg>
